<svg width="166" height="48" viewBox="0 0 166 48" fill="none" xmlns="http://www.w3.org/2000/svg">
<path fill-rule="evenodd" clip-rule="evenodd" d="M152.993 0H8.83745C7.15056 0 5.70357 1.20302 5.39558 2.86156L0.236829 30.6419C-1.34396 39.1546 5.18955 47.0131 13.8478 47.0131H156.653C158.34 47.0131 159.787 45.81 160.095 44.1515L165.5 15.0438C166.953 7.2213 160.949 0 152.993 0ZM137.758 32.4607C139.067 33.3332 140.755 33.7694 142.822 33.7694C145.003 33.7694 146.805 33.2763 148.228 32.29C149.65 31.3038 150.523 29.9097 150.845 28.1079C151.168 26.2492 150.741 24.7318 149.565 23.5559C149.034 23.0438 148.266 22.5791 147.26 22.1619C146.938 22.0101 146.35 21.7825 145.497 21.4791C144.226 21.0049 143.363 20.5971 142.908 20.2557C142.471 19.9143 142.31 19.4781 142.424 18.947C142.652 17.9418 143.448 17.4392 144.814 17.4392C146.255 17.4392 147.336 18.1789 148.057 19.6583L152.04 17.553C151.528 16.1305 150.674 15.0304 149.48 14.2528C148.285 13.4562 146.862 13.0579 145.212 13.0579C143.372 13.0579 141.751 13.5321 140.347 14.4804C138.963 15.4098 138.109 16.8133 137.787 18.691C137.483 20.4359 137.787 21.811 138.697 22.8162C139.645 23.7835 141.049 24.5801 142.908 25.206C144.254 25.6802 145.155 26.0785 145.61 26.4009C146.085 26.7233 146.265 27.1596 146.151 27.7096C145.942 28.8286 144.966 29.3881 143.221 29.3881C141.153 29.3881 139.882 28.4967 139.408 26.7138L135.255 28.8476C135.615 30.3839 136.45 31.5883 137.758 32.4607ZM29.4688 20.5687C29.2223 21.8774 28.6912 23.0249 27.8756 24.0111C27.0601 24.9974 26.0454 25.7276 24.8315 26.2017L27.7334 33.3711H23.1245L20.5356 26.8276H18.0604L16.9225 33.3711C14.5472 33.3711 12.7472 31.2273 13.1583 28.8878L15.8698 13.4562H23.5513C25.4479 13.4562 26.9937 14.177 28.1886 15.6184C29.3835 17.0409 29.8102 18.691 29.4688 20.5687ZM22.8116 17.7237H19.6821L18.7717 22.8447H22.1857C22.8685 22.8447 23.4564 22.6076 23.9496 22.1334C24.4617 21.6403 24.7841 21.0239 24.9169 20.2842C25.0496 19.5445 24.9169 18.9376 24.5186 18.4634C24.1392 17.9703 23.5702 17.7237 22.8116 17.7237ZM40.9441 33.7694C38.5354 33.7694 36.6861 33.134 35.3964 31.8633C34.1067 30.5735 33.642 28.9329 34.0024 26.9414L36.3921 13.4562H40.9441L38.6397 26.5431C38.3172 28.4019 39.1992 29.3312 41.2855 29.3312C43.3718 29.3312 44.5762 28.4019 44.8986 26.5431L46.4137 17.9392C46.8702 15.3466 49.1226 13.4562 51.7551 13.4562L49.3653 26.9414C48.967 29.1605 48.0186 30.858 46.5203 32.034C45.0409 33.1909 43.1822 33.7694 40.9441 33.7694ZM59.2836 33.3711H65.0874L74.7887 13.4562H69.5824L62.8967 28.1079L61.332 13.4562H56.5809L59.2836 33.3711ZM92.2754 13.4562L91.5072 17.8375H83.6835L83.0861 21.1661H90.227L89.4589 25.4336H82.3464L81.7205 28.9898H89.6865L88.9183 33.3711H76.4004L79.8997 13.4562H92.2754ZM94.9006 33.3711H99.4525L101.444 22.1903L107.134 33.3711H110.548L114.047 13.4562H109.495L107.532 24.637L101.814 13.4562H98.3999L94.9006 33.3711ZM119.451 13.4562H129.796C132.118 13.4562 133.877 15.551 133.476 17.8375H128.355L125.624 33.3711H121.072L123.803 17.8375H118.682L119.451 13.4562Z" fill="#3D58B0"/>
</svg>
