<svg width="24" height="25" viewBox="0 0 24 25" fill="none" xmlns="http://www.w3.org/2000/svg">
<g clip-path="url(#clip0_11630_533)">
<path d="M22.5261 12.557V1.91825C22.5261 1.78325 22.4511 1.6595 22.3349 1.592C22.2186 1.5245 22.0724 1.52825 21.9561 1.59575C16.4174 4.9145 12.4049 1.7645 12.2361 1.62575C12.0974 1.517 11.9024 1.517 11.7636 1.62575C11.5949 1.7645 7.58238 4.9145 2.04363 1.59575C1.92738 1.52825 1.78113 1.5245 1.66488 1.592C1.54863 1.6595 1.47363 1.78325 1.47363 1.91825V12.557C1.47363 17.5933 4.86738 22.0145 9.92238 23.5633C10.6274 23.777 11.2874 23.9308 11.9399 24.0395C11.9586 24.0433 11.9811 24.0433 11.9999 24.0433C12.0186 24.0433 12.0411 24.0433 12.0599 24.0395C12.7124 23.9308 13.3724 23.777 14.0811 23.5633C19.1324 22.0145 22.5261 17.5933 22.5261 12.557ZM11.2874 16.5695C10.7999 16.5695 10.3424 16.382 9.99738 16.037L6.55863 12.5945C5.84613 11.8858 5.84613 10.7308 6.55863 10.0183C7.26738 9.3095 8.42613 9.30575 9.13488 10.0183L11.2874 12.1708L15.3449 8.1095C16.0574 7.40075 17.2124 7.40075 17.9249 8.1095C18.6336 8.822 18.6336 9.977 17.9249 10.6895L12.5774 16.037C12.2324 16.382 11.7749 16.5695 11.2874 16.5695Z" fill="url(#paint0_linear_11630_533)"/>
</g>
<defs>
<linearGradient id="paint0_linear_11630_533" x1="11.9999" y1="1.54321" x2="11.9999" y2="24.0433" gradientUnits="userSpaceOnUse">
<stop stop-color="#3D58B0"/>
<stop offset="1" stop-color="#2DCB70"/>
</linearGradient>
<clipPath id="clip0_11630_533">
<rect width="24" height="24" fill="white" transform="translate(0 0.793213)"/>
</clipPath>
</defs>
</svg>
