<svg width="24" height="25" viewBox="0 0 24 25" fill="none" xmlns="http://www.w3.org/2000/svg">
<g clip-path="url(#clip0_11630_540)">
<path d="M20 24.7932H18C15.79 24.7932 14 23.0032 14 20.7932V13.7932C14 11.5832 15.79 9.79321 18 9.79321H20C22.21 9.79321 24 11.5832 24 13.7932V20.7932C24 23.0032 22.21 24.7932 20 24.7932ZM12 14.7932H9L8.75 14.5032C8.37 14.0532 7.81 13.7932 7.22 13.7932H2.5C1.12 13.7932 0 14.9132 0 16.2932C0 17.6732 1.12 18.7932 2.5 18.7932H12V14.7932ZM7.23 11.7932C8.21 11.7932 9.15 12.1532 9.88 12.7932H12.1C12.58 9.96321 15.04 7.79321 18.01 7.79321H20.01C20.71 7.79321 21.38 7.92321 22.01 8.14321V5.79321C22.01 3.03321 19.77 0.793213 17.01 0.793213H7C4.24 0.793213 2 3.03321 2 5.79321V11.9032C2.32 11.8332 2.66 11.7932 3 11.7932H7.23Z" fill="url(#paint0_linear_11630_540)"/>
</g>
<defs>
<linearGradient id="paint0_linear_11630_540" x1="12" y1="0.793213" x2="12" y2="24.7932" gradientUnits="userSpaceOnUse">
<stop stop-color="#3D58B0"/>
<stop offset="1" stop-color="#2DCB70"/>
</linearGradient>
<clipPath id="clip0_11630_540">
<rect width="24" height="24" fill="white" transform="translate(0 0.793213)"/>
</clipPath>
</defs>
</svg>
