<svg width="24" height="25" viewBox="0 0 24 25" fill="none" xmlns="http://www.w3.org/2000/svg">
<g clip-path="url(#clip0_11630_567)">
<path d="M22.0001 11.6752C21.4481 11.6752 21.0001 11.2272 21.0001 10.6752C21.0001 7.87022 19.9081 5.23422 17.9251 3.25022C17.5341 2.85922 17.5341 2.22722 17.9251 1.83622C18.3161 1.44522 18.9481 1.44522 19.3391 1.83622C21.7001 4.19722 23.0001 7.33622 23.0001 10.6752C23.0001 11.2272 22.5521 11.6752 22.0001 11.6752Z" fill="url(#paint0_linear_11630_567)"/>
<path d="M2 11.6752C1.448 11.6752 1 11.2272 1 10.6752C1 7.33622 2.3 4.19722 4.661 1.83622C5.052 1.44522 5.684 1.44522 6.075 1.83622C6.466 2.22722 6.466 2.85922 6.075 3.25022C4.092 5.23322 3 7.87022 3 10.6752C3 11.2272 2.552 11.6752 2 11.6752Z" fill="url(#paint1_linear_11630_567)"/>
<path d="M21.379 17.7062C19.867 16.4282 19 14.5602 19 12.5812V9.79321C19 6.27421 16.386 3.36121 13 2.87321V1.79321C13 1.24021 12.552 0.793213 12 0.793213C11.448 0.793213 11 1.24021 11 1.79321V2.87321C7.613 3.36121 5 6.27421 5 9.79321V12.5812C5 14.5602 4.133 16.4282 2.612 17.7142C2.223 18.0472 2 18.5312 2 19.0432C2 20.0082 2.785 20.7932 3.75 20.7932H20.25C21.215 20.7932 22 20.0082 22 19.0432C22 18.5312 21.777 18.0472 21.379 17.7062Z" fill="url(#paint2_linear_11630_567)"/>
<path d="M11.9999 24.7932C13.8109 24.7932 15.3259 23.5022 15.6739 21.7932H8.32593C8.67393 23.5022 10.1889 24.7932 11.9999 24.7932Z" fill="url(#paint3_linear_11630_567)"/>
</g>
<defs>
<linearGradient id="paint0_linear_11630_567" x1="20.316" y1="1.54297" x2="20.316" y2="11.6752" gradientUnits="userSpaceOnUse">
<stop stop-color="#3D58B0"/>
<stop offset="1" stop-color="#2DCB70"/>
</linearGradient>
<linearGradient id="paint1_linear_11630_567" x1="3.68412" y1="1.54297" x2="3.68412" y2="11.6752" gradientUnits="userSpaceOnUse">
<stop stop-color="#3D58B0"/>
<stop offset="1" stop-color="#2DCB70"/>
</linearGradient>
<linearGradient id="paint2_linear_11630_567" x1="12" y1="0.793213" x2="12" y2="20.7932" gradientUnits="userSpaceOnUse">
<stop stop-color="#3D58B0"/>
<stop offset="1" stop-color="#2DCB70"/>
</linearGradient>
<linearGradient id="paint3_linear_11630_567" x1="11.9999" y1="21.7932" x2="11.9999" y2="24.7932" gradientUnits="userSpaceOnUse">
<stop stop-color="#3D58B0"/>
<stop offset="1" stop-color="#2DCB70"/>
</linearGradient>
<clipPath id="clip0_11630_567">
<rect width="24" height="24" fill="white" transform="translate(0 0.793213)"/>
</clipPath>
</defs>
</svg>
