<svg width="24" height="25" viewBox="0 0 24 25" fill="none" xmlns="http://www.w3.org/2000/svg">
<g clip-path="url(#clip0_11630_886)">
<path d="M9.5 5.29321C9.5 3.91221 10.619 2.79321 12 2.79321C13.381 2.79321 14.5 3.91221 14.5 5.29321C14.5 6.67421 13.381 7.79321 12 7.79321C10.619 7.79321 9.5 6.67421 9.5 5.29321ZM17 12.7932V15.7932C17 17.2672 16.19 18.5432 15 19.2372V23.7932C15 24.3452 14.552 24.7932 14 24.7932C13.448 24.7932 13 24.3452 13 23.7932V19.7932H11V23.7932C11 24.3452 10.552 24.7932 10 24.7932C9.448 24.7932 9 24.3452 9 23.7932V19.2372C7.81 18.5432 7 17.2672 7 15.7932V12.7932C7 10.5872 8.794 8.79321 11 8.79321H13C15.206 8.79321 17 10.5872 17 12.7932ZM5 5.79321C6.381 5.79321 7.5 4.67421 7.5 3.29321C7.5 1.91221 6.381 0.793213 5 0.793213C3.619 0.793213 2.5 1.91221 2.5 3.29321C2.5 4.67421 3.619 5.79321 5 5.79321ZM19 5.79321C20.381 5.79321 21.5 4.67421 21.5 3.29321C21.5 1.91221 20.381 0.793213 19 0.793213C17.619 0.793213 16.5 1.91221 16.5 3.29321C16.5 4.67421 17.619 5.79321 19 5.79321ZM20 6.79321H18C17.256 6.79321 16.568 7.01021 15.971 7.36521C15.942 7.42121 15.912 7.47721 15.881 7.53221C17.739 8.55321 19.001 10.5282 19.001 12.7932V15.7932C19.001 16.4832 18.873 17.1582 18.644 17.7932H20.001V21.7932C20.001 22.3452 20.449 22.7932 21.001 22.7932C21.553 22.7932 22.001 22.3452 22.001 21.7932V17.2372C23.191 16.5432 24.001 15.2672 24.001 13.7932V10.7932C24.001 8.58721 22.206 6.79321 20 6.79321ZM5 15.7932V12.7932C5 10.5282 6.262 8.55321 8.12 7.53221C8.088 7.47721 8.059 7.42221 8.03 7.36521C7.433 7.01021 6.744 6.79321 6.001 6.79321H4.001C1.794 6.79321 0 8.58721 0 10.7932V13.7932C0 15.2672 0.81 16.5432 2 17.2372V21.7932C2 22.3452 2.448 22.7932 3 22.7932C3.552 22.7932 4 22.3452 4 21.7932V17.7932H5.357C5.128 17.1582 5 16.4832 5 15.7932Z" fill="url(#paint0_linear_11630_886)"/>
</g>
<defs>
<linearGradient id="paint0_linear_11630_886" x1="12.0005" y1="0.793213" x2="12.0005" y2="24.7932" gradientUnits="userSpaceOnUse">
<stop stop-color="#3D58B0"/>
<stop offset="1" stop-color="#2DCB70"/>
</linearGradient>
<clipPath id="clip0_11630_886">
<rect width="24" height="24" fill="white" transform="translate(0 0.793213)"/>
</clipPath>
</defs>
</svg>
