<svg width="24" height="25" viewBox="0 0 24 25" fill="none" xmlns="http://www.w3.org/2000/svg">
<mask id="mask0_11630_830" style="mask-type:luminance" maskUnits="userSpaceOnUse" x="0" y="0" width="24" height="25">
<path d="M0 0.456055H24V24.4561H0V0.456055Z" fill="white"/>
</mask>
<g mask="url(#mask0_11630_830)">
<path d="M5.47192 3.67205C5.47192 1.89591 6.91178 0.456055 8.68792 0.456055H15.3119C17.0881 0.456055 18.5279 1.89591 18.5279 3.67205H5.47192Z" fill="url(#paint0_linear_11630_830)"/>
<path fill-rule="evenodd" clip-rule="evenodd" d="M21.12 18.8219V17.208C21.12 14.6366 19.0355 12.552 16.464 12.552H7.536C4.96454 12.552 2.88 14.6366 2.88 17.208V18.8219C1.18015 18.0399 0 16.3217 0 14.328V11.016C0 8.28554 2.21351 6.07202 4.944 6.07202H19.056C21.7865 6.07202 24 8.28554 24 11.016V14.328C24 16.3217 22.8199 18.0399 21.12 18.8219ZM6.864 9.19202C6.864 9.96079 6.24077 10.584 5.472 10.584C4.70322 10.584 4.08 9.96079 4.08 9.19202C4.08 8.42325 4.70322 7.80002 5.472 7.80002C6.24077 7.80002 6.864 8.42325 6.864 9.19202Z" fill="url(#paint1_linear_11630_830)"/>
<path d="M18.5602 19.272C18.5391 19.1794 18.5281 19.083 18.5281 18.984V17.208C18.5281 16.0681 17.604 15.144 16.4641 15.144H7.53605C6.39615 15.144 5.47205 16.0681 5.47205 17.208V18.984C5.47205 19.083 5.46097 19.1794 5.43994 19.272H5.47205V20.52C5.47205 22.6938 7.23428 24.456 9.40805 24.456H14.5921C16.7658 24.456 18.5281 22.6938 18.5281 20.52V19.272H18.5602Z" fill="url(#paint2_linear_11630_830)"/>
</g>
<defs>
<linearGradient id="paint0_linear_11630_830" x1="11.9999" y1="0.456055" x2="11.9999" y2="3.67205" gradientUnits="userSpaceOnUse">
<stop stop-color="#3D58B0"/>
<stop offset="1" stop-color="#2DCB70"/>
</linearGradient>
<linearGradient id="paint1_linear_11630_830" x1="12" y1="6.07202" x2="12" y2="18.8219" gradientUnits="userSpaceOnUse">
<stop stop-color="#3D58B0"/>
<stop offset="1" stop-color="#2DCB70"/>
</linearGradient>
<linearGradient id="paint2_linear_11630_830" x1="12.0001" y1="15.144" x2="12.0001" y2="24.456" gradientUnits="userSpaceOnUse">
<stop stop-color="#3D58B0"/>
<stop offset="1" stop-color="#2DCB70"/>
</linearGradient>
</defs>
</svg>
