<svg width="24" height="25" viewBox="0 0 24 25" fill="none" xmlns="http://www.w3.org/2000/svg">
<path fill-rule="evenodd" clip-rule="evenodd" d="M4.10541 0.455933C1.83805 0.455933 0 2.29662 0 4.56723V20.3446C0 22.6152 1.83805 24.4559 4.10541 24.4559H7.47999C7.07508 23.798 6.84148 23.0231 6.84148 22.1935C6.84148 20.7574 7.54154 19.485 8.61856 18.7C8.83875 14.8189 12.0513 11.7396 15.9819 11.7396C18.7691 11.7396 21.1952 13.2879 22.4494 15.5725C23.0117 15.7641 23.5339 16.0425 24 16.3919V4.56723C24 2.29662 22.1619 0.455933 19.8946 0.455933H4.10541ZM24 19.7144C23.8513 19.2893 23.6244 18.9011 23.3365 18.5669C22.7577 17.8949 21.9325 17.4417 21.0015 17.348C20.9032 17.0696 20.7824 16.8019 20.6414 16.5469C20.3968 16.1047 20.0913 15.701 19.7363 15.3471C18.7738 14.388 17.447 13.7953 15.9819 13.7953C13.4672 13.7953 11.3598 15.5417 10.8031 17.8895C10.709 18.2862 10.6592 18.7001 10.6592 19.1256C10.6592 19.4135 10.682 19.696 10.7259 19.9715C9.90815 20.1284 9.24702 20.7267 8.99936 21.5092C8.93104 21.7251 8.89418 21.955 8.89418 22.1935C8.89418 23.3423 9.74917 24.2911 10.8567 24.4366C10.9538 24.4494 11.0528 24.4559 11.1534 24.4559H19.8946C22.1619 24.4559 24 22.6152 24 20.3446V19.7144ZM4.87427 4.32357C4.87427 4.95938 4.35958 5.47481 3.72469 5.47481C3.08979 5.47481 2.5751 4.95938 2.5751 4.32357C2.5751 3.68776 3.08979 3.17234 3.72469 3.17234C4.35958 3.17234 4.87427 3.68776 4.87427 4.32357ZM7.17336 5.47481C7.80825 5.47481 8.32294 4.95938 8.32294 4.32357C8.32294 3.68776 7.80825 3.17234 7.17336 3.17234C6.53846 3.17234 6.02377 3.68776 6.02377 4.32357C6.02377 4.95938 6.53846 5.47481 7.17336 5.47481Z" fill="url(#paint0_linear_11630_1240)"/>
<defs>
<linearGradient id="paint0_linear_11630_1240" x1="12" y1="0.455933" x2="12" y2="24.4559" gradientUnits="userSpaceOnUse">
<stop stop-color="#3D58B0"/>
<stop offset="1" stop-color="#2DCB70"/>
</linearGradient>
</defs>
</svg>
