<svg width="24" height="25" viewBox="0 0 24 25" fill="none" xmlns="http://www.w3.org/2000/svg">
<path d="M10.3255 0.456055H13.6743C14.1367 0.456055 14.5115 0.830896 14.5115 1.29326V6.87466C14.5115 7.33703 14.1367 7.71187 13.6743 7.71187H10.3255C9.86312 7.71187 9.48828 7.33703 9.48828 6.87466V1.29326C9.48828 0.830896 9.86312 0.456055 10.3255 0.456055Z" fill="url(#paint0_linear_11630_881)"/>
<path d="M7.53479 15.5259C8.61367 15.5259 9.48828 14.6513 9.48828 13.5724C9.48828 12.4935 8.61367 11.6189 7.53479 11.6189C6.45591 11.6189 5.5813 12.4935 5.5813 13.5724C5.5813 14.6513 6.45591 15.5259 7.53479 15.5259Z" fill="url(#paint1_linear_11630_881)"/>
<path d="M20.9302 3.80493H15.6279V7.15377H16.4651C16.9275 7.15377 17.3023 7.52861 17.3023 7.99098C17.3023 8.45335 16.9275 8.82819 16.4651 8.82819H7.53488C7.07252 8.82819 6.69768 8.45335 6.69768 7.99098C6.69768 7.52861 7.07252 7.15377 7.53488 7.15377H8.37209V3.80493H3.06977C1.3756 3.80371 0.00122704 5.1761 8.21068e-07 6.87022V6.8747V21.3863C-0.00122539 23.0805 1.37116 24.4549 3.06529 24.4561H3.06977H20.9302C22.6244 24.4573 23.9988 23.0849 24 21.3908C24 21.3893 24 21.3879 24 21.3863V6.8747C24.0012 5.18054 22.6288 3.80616 20.9347 3.80493C20.9332 3.80493 20.9317 3.80493 20.9302 3.80493ZM11.7209 20.8282C11.7209 21.2906 11.3461 21.6654 10.8837 21.6654C10.4214 21.6654 10.0465 21.2906 10.0465 20.8282V19.7119C10.0465 18.3248 8.92203 17.2003 7.53488 17.2003C6.14774 17.2003 5.02326 18.3248 5.02326 19.7119V20.8282C5.02326 21.2906 4.64842 21.6654 4.18605 21.6654C3.72368 21.6654 3.34884 21.2906 3.34884 20.8282V19.7119C3.35171 18.3445 4.02279 17.0648 5.14605 16.2849C3.6381 14.9656 3.48516 12.6736 4.80448 11.1657C6.12381 9.65774 8.41577 9.50481 9.92372 10.8241C11.4317 12.1435 11.5846 14.4354 10.2653 15.9434C10.1592 16.0647 10.045 16.1788 9.92372 16.2849C11.047 17.0648 11.7181 18.3445 11.7209 19.7119V20.8282ZM17.5814 18.8747H13.6744C13.2121 18.8747 12.8372 18.4999 12.8372 18.0375C12.8372 17.5751 13.2121 17.2003 13.6744 17.2003H17.5814C18.0438 17.2003 18.4186 17.5751 18.4186 18.0375C18.4186 18.4999 18.0438 18.8747 17.5814 18.8747ZM19.814 15.5259H13.6744C13.2121 15.5259 12.8372 15.151 12.8372 14.6887C12.8372 14.2263 13.2121 13.8514 13.6744 13.8514H19.814C20.2763 13.8514 20.6512 14.2263 20.6512 14.6887C20.6512 15.151 20.2763 15.5259 19.814 15.5259Z" fill="url(#paint2_linear_11630_881)"/>
<defs>
<linearGradient id="paint0_linear_11630_881" x1="11.9999" y1="0.456055" x2="11.9999" y2="7.71187" gradientUnits="userSpaceOnUse">
<stop stop-color="#3D58B0"/>
<stop offset="1" stop-color="#2DCB70"/>
</linearGradient>
<linearGradient id="paint1_linear_11630_881" x1="7.53479" y1="11.6189" x2="7.53479" y2="15.5259" gradientUnits="userSpaceOnUse">
<stop stop-color="#3D58B0"/>
<stop offset="1" stop-color="#2DCB70"/>
</linearGradient>
<linearGradient id="paint2_linear_11630_881" x1="12" y1="3.80493" x2="12" y2="24.4561" gradientUnits="userSpaceOnUse">
<stop stop-color="#3D58B0"/>
<stop offset="1" stop-color="#2DCB70"/>
</linearGradient>
</defs>
</svg>
