<svg width="20" height="19" viewBox="0 0 20 19" fill="none" xmlns="http://www.w3.org/2000/svg">
<path d="M10 18.6732C1.765 18.6732 0 17.0553 0 9.50654C0 7.43187 0.133318 5.80519 0.497629 4.53696C1.43044 5.47216 2.60755 6.59673 3.88606 7.59841C5.69935 9.01912 7.89543 10.3399 10 10.3399C12.1046 10.3399 14.3007 9.01912 16.1139 7.59841C17.3924 6.59673 18.5696 5.47216 19.5023 4.53697C19.8667 5.80519 20 7.43187 20 9.50654C20 17.0553 18.235 18.6732 10 18.6732Z" fill="#3D58B0"/>
<path d="M18.7761 2.9008C17.7997 3.89597 16.5045 5.17515 15.0861 6.28646C13.2993 7.68631 11.4954 8.67321 9.99999 8.67321C8.50458 8.67321 6.70064 7.68631 4.91394 6.28646C3.49549 5.17515 2.20034 3.89597 1.22388 2.9008C2.54741 0.900373 5.15299 0.339874 9.99999 0.339874C14.847 0.339874 17.4526 0.900373 18.7761 2.9008Z" fill="#3D58B0"/>
</svg>
