<svg width="20" height="21" viewBox="0 0 20 21" fill="none" xmlns="http://www.w3.org/2000/svg">
<path d="M17.07 3.43427C13.1642 -0.470373 6.83251 -0.469436 2.92787 3.43642C-0.976782 7.34228 -0.975845 13.6739 2.93001 17.5786C6.83587 21.4832 13.1675 21.4823 17.0722 17.5764C18.9474 15.7006 20.0006 13.1567 20 10.5043C19.9995 7.85232 18.9455 5.3092 17.07 3.43427ZM15.1447 14.4363C15.1442 14.4367 15.1438 14.4372 15.1433 14.4376V14.4343L14.6367 14.9376C13.9814 15.6012 13.027 15.8742 12.12 15.6576C11.2061 15.413 10.3374 15.0237 9.54666 14.5043C8.81205 14.0348 8.13126 13.486 7.51666 12.8676C6.95115 12.3063 6.4431 11.6899 5.99998 11.0276C5.51529 10.3151 5.13166 9.53881 4.85998 8.72095C4.54853 7.76017 4.80662 6.70592 5.52666 5.99763L6.11998 5.40431C6.28494 5.23861 6.55298 5.23802 6.71865 5.40299C6.71908 5.40342 6.71955 5.40385 6.71998 5.40431L8.5933 7.27763C8.759 7.4426 8.75959 7.71064 8.59462 7.87631C8.59419 7.87674 8.59377 7.87717 8.5933 7.87763L7.4933 8.97763C7.17767 9.28982 7.13798 9.78592 7.39998 10.1443C7.79783 10.6903 8.2381 11.2041 8.71666 11.681C9.25021 12.2169 9.83025 12.7043 10.45 13.1377C10.8081 13.3874 11.2935 13.3453 11.6033 13.0377L12.6666 11.9577C12.8316 11.792 13.0996 11.7914 13.2653 11.9563C13.2657 11.9568 13.2661 11.9572 13.2666 11.9577L15.1433 13.8377C15.309 14.0026 15.3096 14.2706 15.1447 14.4363Z" fill="#3D58B0"/>
</svg>
