<?xml version="1.0" encoding="UTF-8"?> <!-- Generator: Adobe Illustrator 25.3.1, SVG Export Plug-In . SVG Version: 6.00 Build 0) --> <svg xmlns="http://www.w3.org/2000/svg" xmlns:xlink="http://www.w3.org/1999/xlink" id="Layer_1" x="0px" y="0px" viewBox="0 0 980 416" style="enable-background:new 0 0 980 416;" xml:space="preserve"> <style type="text/css"> .st0{fill:url(#SVGID_1_);} .st1{fill:url(#SVGID_2_);} .st2{fill:url(#SVGID_3_);} .st3{fill:url(#SVGID_4_);} .st4{fill:#4D5568;} </style> <g> <g> <linearGradient id="SVGID_1_" gradientUnits="userSpaceOnUse" x1="95.6285" y1="377.727" x2="160.2574" y2="11.1985"> <stop offset="5.000000e-02" style="stop-color:#0541F0"></stop> <stop offset="0.2124" style="stop-color:#116CF4"></stop> <stop offset="0.444" style="stop-color:#22A2F9"></stop> <stop offset="0.6442" style="stop-color:#2DCAFC"></stop> <stop offset="0.8028" style="stop-color:#34E2FE"></stop> <stop offset="0.9" style="stop-color:#37EBFF"></stop> </linearGradient> <path class="st0" d="M204.5,346.5c-77.3,0-140-62.7-140-140s62.7-140,140-140V19C100.9,19,17,102.9,17,206.5 C17,310.1,100.9,394,204.5,394V346.5z"></path> <linearGradient id="SVGID_2_" gradientUnits="userSpaceOnUse" x1="172.682" y1="238.3197" x2="236.3216" y2="174.6801"> <stop offset="6.366186e-02" style="stop-color:#37EBFF"></stop> <stop offset="0.1877" style="stop-color:#36E7FF"></stop> <stop offset="0.3164" style="stop-color:#32DAFE"></stop> <stop offset="0.4471" style="stop-color:#2CC6FC"></stop> <stop offset="0.5794" style="stop-color:#23A9F9"></stop> <stop offset="0.7127" style="stop-color:#1883F6"></stop> <stop offset="0.8452" style="stop-color:#0B56F2"></stop> <stop offset="0.9" style="stop-color:#0541F0"></stop> </linearGradient> <circle class="st1" cx="204.5" cy="206.5" r="45"></circle> <linearGradient id="SVGID_3_" gradientUnits="userSpaceOnUse" x1="202.8056" y1="345.8826" x2="295.6966" y2="90.6667"> <stop offset="5.000000e-02" style="stop-color:#37EBFF"></stop> <stop offset="0.1634" style="stop-color:#2DC8FC"></stop> <stop offset="0.3391" style="stop-color:#1F98F8"></stop> <stop offset="0.5061" style="stop-color:#1472F4"></stop> <stop offset="0.66" style="stop-color:#0C57F2"></stop> <stop offset="0.7961" style="stop-color:#0747F1"></stop> <stop offset="0.9" style="stop-color:#0541F0"></stop> </linearGradient> <path class="st2" d="M204.5,66.5L204.5,66.5V114l0,0c51.1,0,92.5,41.4,92.5,92.5S255.6,299,204.5,299l0,0v47.5l0,0 c77.3,0,140-62.7,140-140S281.8,66.5,204.5,66.5z"></path> <linearGradient id="SVGID_4_" gradientUnits="userSpaceOnUse" x1="129.5159" y1="262.3287" x2="260.3307" y2="131.5139"> <stop offset="0.1063" style="stop-color:#0541F0"></stop> <stop offset="0.8945" style="stop-color:#37EBFF"></stop> </linearGradient> <path class="st3" d="M204.5,251.5c-24.9,0-45-20.1-45-45c0-24.9,20.1-45,45-45c24.9,0,45,20.1,45,45H297 c0-51.1-41.4-92.5-92.5-92.5S112,155.4,112,206.5s41.4,92.5,92.5,92.5V251.5z"></path> </g> <path class="st4" d="M437.1,274.4h-0.1l-15.1-27.9h-8.7l19.9,36.3l-0.3,0.5c-1.9,3.9-4.3,6.6-9.1,6.6c-1.7,0-3.4-0.4-4.1-0.6v6.9 c0.9,0.4,2.5,0.9,5.1,0.9c7,0,11.8-4.1,15.2-11.6l17.5-38.9h-8.1L437.1,274.4z M499.5,267.6h-24.6v-21.1H467v50h7.9v-21.8h24.6 v21.8h7.9v-50h-7.9V267.6z M529.9,283.6h-0.2v-37.1h-7.9v50h7.1l27.4-37.1h0.1v37.1h7.9v-50h-7.1L529.9,283.6z M607.7,269.6 c3.2-1.5,6.2-4.9,6.2-9.9c0-7.1-6.1-13.2-15-13.2h-20v50H600c9.6,0,16.4-6.8,16.4-14.6C616.4,275.3,611.3,271,607.7,269.6z M586.8,253.3h12.1c4.3,0,7.1,2.9,7.1,6.8s-2.9,6.8-7.1,6.8h-12.1V253.3z M600,289.7h-13.2v-16.4H600c5,0,8.6,3.6,8.6,8.2 C608.6,286.1,605,289.7,600,289.7z M635.9,274.1h21.8V267h-21.8v-13.4h27.5v-7.1h-35.4v50h36.1v-7.1h-28.2V274.1z M694.8,246.5h-20 v50h7.9v-17.9h12.1c9.6,0,16.8-7.1,16.8-16.1C711.6,253.6,704.5,246.5,694.8,246.5z M694.8,271.5h-12.1v-17.9h12.1 c5,0,8.9,3.9,8.9,8.9S699.8,271.5,694.8,271.5z M746.4,290.1c-10.4,0-18.6-8.2-18.6-18.6c0-10.4,8.2-18.6,18.6-18.6 c7.7,0,12.1,3.9,14.9,6.9l5.5-4.5c-3.4-4.3-10.4-9.6-20.4-9.6c-15,0-26.4,11.4-26.4,25.7c0,14.3,11.4,25.7,26.4,25.7 c9.9,0,17.1-5.3,20.7-9.8l-5.5-4.5C758.7,286.2,754.1,290.1,746.4,290.1z M785.3,283.6h-0.2v-37.1h-7.9v50h7.1l27.4-37.1h0.1v37.1 h7.9v-50h-7.1L785.3,283.6z M829.4,253.6h15v42.9h7.9v-42.9h15v-7.1h-37.9V253.6z M884.8,274.1h21.8V267h-21.8v-13.4h27.5v-7.1 h-35.4v50H913v-7.1h-28.2V274.1z M920.7,246.5v7.1h15v42.9h7.9v-42.9h15v-7.1H920.7z"></path> <path class="st4" d="M470.7,157.5l-48.6-52.2h-7.6v101.2h21.3v-57l31.9,33.5h6l31.9-33.5v57h21.3V105.3h-7.6L470.7,157.5z M567.9,166.6v-60.1h-21.3v101.2h8.2l62.2-61.3v60.1h21.3V105.3h-8.2L567.9,166.6z M704.1,124.7c11.1,0,20.9,6,27.4,15.8l15-14.5 c-9.9-13.7-25.8-21.8-42.4-21.8c-28.8,0-53.1,22.7-53.1,52.2c0,29.5,24.3,52.2,53.1,52.2c16.6,0,32.5-8.1,42.4-21.8l-15-14.5 c-6.5,9.8-16.3,15.8-27.4,15.8c-17.2,0-31.2-13.2-31.2-31.8S686.9,124.7,704.1,124.7z M781.4,166.6v-60.1h-21.3v101.2h8.2 l62.2-61.3v60.1h21.3V105.3h-8.2L781.4,166.6z M917.5,188.3c-17.2,0-31.2-13.2-31.2-31.8s14-31.8,31.2-31.8 c11.1,0,20.9,6,27.4,15.8l15-14.5c-9.9-13.7-25.8-21.8-42.4-21.8c-28.8,0-53.1,22.7-53.1,52.2c0,29.5,24.3,52.2,53.1,52.2 c16.6,0,32.5-8.1,42.4-21.8l-15-14.5C938.5,182.3,928.6,188.3,917.5,188.3z"></path> </g> </svg> 