<?xml version="1.0" encoding="UTF-8"?> <!-- Generator: Adobe Illustrator 25.3.1, SVG Export Plug-In . SVG Version: 6.00 Build 0) --> <svg xmlns="http://www.w3.org/2000/svg" xmlns:xlink="http://www.w3.org/1999/xlink" id="图层_1" x="0px" y="0px" viewBox="0 0 1373.8 1373.8" style="enable-background:new 0 0 1373.8 1373.8;" xml:space="preserve"> <style type="text/css"> .st0{clip-path:url(#SVGID_2_);fill:url(#SVGID_3_);} .st1{clip-path:url(#SVGID_5_);fill:url(#SVGID_6_);} .st2{clip-path:url(#SVGID_8_);fill:url(#SVGID_9_);} .st3{clip-path:url(#SVGID_11_);fill:url(#SVGID_12_);} .st4{clip-path:url(#SVGID_14_);fill:url(#SVGID_15_);} .st5{clip-path:url(#SVGID_17_);fill:url(#SVGID_18_);} .st6{clip-path:url(#SVGID_20_);fill:url(#SVGID_21_);} .st7{clip-path:url(#SVGID_23_);fill:url(#SVGID_24_);} </style> <g> <polygon points="348.2,1026.4 282,1026.4 282,968.1 252.6,968.1 252.6,1112.6 282,1112.6 282,1053.9 348.2,1053.9 348.2,1112.6 377.5,1112.6 377.5,968.1 348.2,968.1 "></polygon> <path d="M513.3,1050.8c0,23.5-11.7,36-32.8,36c-21.3,0-33-12.9-33-37v-81.6h-29.3v82.6c0,40.7,22.6,64,62,64 c39.8,0,62.6-23.7,62.6-65.2v-81.5h-29.3V1050.8z"></path> <polygon points="852.2,1067.5 819.4,968.1 795.5,968.1 762.7,1067.5 730.8,968.1 699.5,968.1 749.9,1112.6 774.2,1112.6 807,1017.7 839.9,1112.6 864.4,1112.6 914.6,968.1 884.2,968.1 "></polygon> <polygon points="967.2,1050.4 1020.5,1050.4 1020.5,1024.1 967.2,1024.1 967.2,994.5 1044.6,994.5 1044.6,968.2 938.3,968.2 938.3,1112.5 1047.4,1112.5 1047.4,1086.2 967.2,1086.2 "></polygon> <rect x="1082.4" y="968.1" width="28.9" height="144.3"></rect> <path d="M666.8,1082.4l13,30.1h30.7l-63.1-143.6l-0.6-0.8h-25.6l-63.7,144.4h29.9l12.3-28l0.9-2.1H666.8z M633.6,1004.7l20.9,48.4 h-0.1l1.4,3.4h-44.3l1.4-3.4h0L633.6,1004.7z"></path> <g> <defs> <path id="SVGID_1_" d="M313.1,494.5c2.9,53.9,43.6,85.8,43.6,85.8c65.6,63.6,224.3,144,261.2,162.2c0.5,0.2,2.4,0.8,3.5-0.6 c0,0,1.6-1.2,0.7-3.2h0c-101-219.8-239.2-386.5-239.2-386.5S307.7,423.3,313.1,494.5"></path> </defs> <clipPath id="SVGID_2_"> <use xlink:href="#SVGID_1_" style="overflow:visible;"></use> </clipPath> <radialGradient id="SVGID_3_" cx="-1285.7771" cy="1313.0681" r="2.1129" gradientTransform="matrix(293.2641 0 0 -292.0826 377865.2188 383842.125)" gradientUnits="userSpaceOnUse"> <stop offset="0" style="stop-color:#FCAC8F"></stop> <stop offset="1.130752e-02" style="stop-color:#FCA789"></stop> <stop offset="0.427" style="stop-color:#FF0001"></stop> <stop offset="0.6628" style="stop-color:#FD0001"></stop> <stop offset="0.7574" style="stop-color:#F60001"></stop> <stop offset="0.8268" style="stop-color:#EA0001"></stop> <stop offset="0.8838" style="stop-color:#D80001"></stop> <stop offset="0.9331" style="stop-color:#C20001"></stop> <stop offset="0.9765" style="stop-color:#A60000"></stop> <stop offset="1" style="stop-color:#940001"></stop> </radialGradient> <rect x="307.7" y="352.2" class="st0" width="315.2" height="391.1"></rect> </g> <g> <defs> <path id="SVGID_4_" d="M329.1,803c28.7,50.9,76.9,90.4,127.2,78.3c34.7-8.6,113.3-63.2,139.2-81.7l-0.1-0.1 c2-1.8,1.3-3.3,1.3-3.3c-0.7-2.4-3.4-2.4-3.4-2.4v-0.1L329.1,803z"></path> </defs> <clipPath id="SVGID_5_"> <use xlink:href="#SVGID_4_" style="overflow:visible;"></use> </clipPath> <radialGradient id="SVGID_6_" cx="-1285.7754" cy="1313.0697" r="2.1174" gradientTransform="matrix(293.2812 0 0 -292.0997 377886.9688 383864.5)" gradientUnits="userSpaceOnUse"> <stop offset="0" style="stop-color:#FCAC8F"></stop> <stop offset="1.130752e-02" style="stop-color:#FCA789"></stop> <stop offset="0.427" style="stop-color:#FF0001"></stop> <stop offset="0.6628" style="stop-color:#FD0001"></stop> <stop offset="0.7574" style="stop-color:#F60001"></stop> <stop offset="0.8268" style="stop-color:#EA0001"></stop> <stop offset="0.8838" style="stop-color:#D80001"></stop> <stop offset="0.9331" style="stop-color:#C20001"></stop> <stop offset="0.9765" style="stop-color:#A60000"></stop> <stop offset="1" style="stop-color:#940001"></stop> </radialGradient> <rect x="329.1" y="793.9" class="st1" width="268.4" height="99.6"></rect> </g> <g> <defs> <path id="SVGID_7_" d="M265.9,684.9c28.7,60.4,83.4,78.6,83.4,78.6c25.3,10.3,50.6,11,50.6,11c4,0.7,157.2,0.1,198.2-0.1 c1.7,0,2.7-1.8,2.7-1.8c1.3-2.1-1-3.9-1-3.9l0,0C483.8,690.7,258.8,571,258.8,571C238.3,634.1,265.9,684.9,265.9,684.9"></path> </defs> <clipPath id="SVGID_8_"> <use xlink:href="#SVGID_7_" style="overflow:visible;"></use> </clipPath> <radialGradient id="SVGID_9_" cx="-1285.7755" cy="1313.0703" r="2.1172" gradientTransform="matrix(293.2418 0 0 -292.0604 377836.5 383812.9688)" gradientUnits="userSpaceOnUse"> <stop offset="0" style="stop-color:#FCAC8F"></stop> <stop offset="1.130752e-02" style="stop-color:#FCA789"></stop> <stop offset="0.427" style="stop-color:#FF0001"></stop> <stop offset="0.6628" style="stop-color:#FD0001"></stop> <stop offset="0.7574" style="stop-color:#F60001"></stop> <stop offset="0.8268" style="stop-color:#EA0001"></stop> <stop offset="0.8838" style="stop-color:#D80001"></stop> <stop offset="0.9331" style="stop-color:#C20001"></stop> <stop offset="0.9765" style="stop-color:#A60000"></stop> <stop offset="1" style="stop-color:#940001"></stop> </radialGradient> <rect x="238.3" y="571" class="st2" width="363.8" height="204.3"></rect> </g> <g> <defs> <path id="SVGID_10_" d="M575.8,246.6c-70,18-86.5,81.3-86.5,81.3c-12.8,39.8,0.3,83.5,0.3,83.5c23.4,103.2,138.3,272.8,163,308.4 c1.8,1.7,3.1,1.1,3.1,1.1c2.7-0.7,2.5-3.3,2.5-3.3l0,0c38-378.7-39.9-479.1-39.9-479.1C606.9,239.5,575.8,246.6,575.8,246.6"></path> </defs> <clipPath id="SVGID_11_"> <use xlink:href="#SVGID_10_" style="overflow:visible;"></use> </clipPath> <radialGradient id="SVGID_12_" cx="-1285.5704" cy="1313.0668" r="2.1171" gradientTransform="matrix(293.2483 0 0 -292.0669 377784.4688 383821.7813)" gradientUnits="userSpaceOnUse"> <stop offset="0" style="stop-color:#FCAC8F"></stop> <stop offset="1.130752e-02" style="stop-color:#FCA789"></stop> <stop offset="0.427" style="stop-color:#FF0001"></stop> <stop offset="0.6628" style="stop-color:#FD0001"></stop> <stop offset="0.7574" style="stop-color:#F60001"></stop> <stop offset="0.8268" style="stop-color:#EA0001"></stop> <stop offset="0.8838" style="stop-color:#D80001"></stop> <stop offset="0.9331" style="stop-color:#C20001"></stop> <stop offset="0.9765" style="stop-color:#A60000"></stop> <stop offset="1" style="stop-color:#940001"></stop> </radialGradient> <rect x="476.5" y="238.5" class="st3" width="219.8" height="483"></rect> </g> <g> <defs> <path id="SVGID_13_" d="M703.8,717.9L703.8,717.9c0.3,2.4,2,2.9,2,2.9c2.6,1,3.8-1.5,3.8-1.5l0,0 c25.4-36.5,139.6-205.2,162.9-308c0,0,12.6-49.8,0.4-83.5c0,0-17.3-64.2-87.4-81.2c0,0-20.2-5.1-41.6-8.1 C744.1,238.5,665.7,339,703.8,717.9"></path> </defs> <clipPath id="SVGID_14_"> <use xlink:href="#SVGID_13_" style="overflow:visible;"></use> </clipPath> <radialGradient id="SVGID_15_" cx="-1285.7791" cy="1313.0715" r="2.115" gradientTransform="matrix(293.5766 0 0 -292.3939 378268.3125 384251.1563)" gradientUnits="userSpaceOnUse"> <stop offset="0" style="stop-color:#FCAC8F"></stop> <stop offset="1.130752e-02" style="stop-color:#FCA789"></stop> <stop offset="0.427" style="stop-color:#FF0001"></stop> <stop offset="0.6628" style="stop-color:#FD0001"></stop> <stop offset="0.7574" style="stop-color:#F60001"></stop> <stop offset="0.8268" style="stop-color:#EA0001"></stop> <stop offset="0.8838" style="stop-color:#D80001"></stop> <stop offset="0.9331" style="stop-color:#C20001"></stop> <stop offset="0.9765" style="stop-color:#A60000"></stop> <stop offset="1" style="stop-color:#940001"></stop> </radialGradient> <rect x="665.7" y="238.5" class="st4" width="219.5" height="483.2"></rect> </g> <g> <defs> <path id="SVGID_16_" d="M768.4,794.1c0,0-2.3,0.3-3,2c0,0-0.5,2.4,1,3.5l0,0c25.3,18.1,102,71.5,139,81.8 c0,0,68.3,23.2,127.7-78.4L768.4,794.1L768.4,794.1z"></path> </defs> <clipPath id="SVGID_17_"> <use xlink:href="#SVGID_16_" style="overflow:visible;"></use> </clipPath> <radialGradient id="SVGID_18_" cx="-1285.7803" cy="1313.0721" r="2.1175" gradientTransform="matrix(293.5503 0 0 -292.3676 378234.9063 384216.7188)" gradientUnits="userSpaceOnUse"> <stop offset="0" style="stop-color:#FCAC8F"></stop> <stop offset="1.130752e-02" style="stop-color:#FCA789"></stop> <stop offset="0.427" style="stop-color:#FF0001"></stop> <stop offset="0.6628" style="stop-color:#FD0001"></stop> <stop offset="0.7574" style="stop-color:#F60001"></stop> <stop offset="0.8268" style="stop-color:#EA0001"></stop> <stop offset="0.8838" style="stop-color:#D80001"></stop> <stop offset="0.9331" style="stop-color:#C20001"></stop> <stop offset="0.9765" style="stop-color:#A60000"></stop> <stop offset="1" style="stop-color:#940001"></stop> </radialGradient> <rect x="764.9" y="794" class="st5" width="268.2" height="110.7"></rect> </g> <g> <defs> <path id="SVGID_19_" d="M762.6,768.5L762.6,768.5c0,0-2.1,1.4-1.3,3.9c0,0,1.1,2,2.7,2v0c41.6,0.1,199,0.3,203-0.5 c0,0,20.3-0.8,45.5-10.4c0,0,56-17.7,85.1-81.1c0,0,25.9-51.7,5.9-112C1103.4,570.4,878.8,690.5,762.6,768.5"></path> </defs> <clipPath id="SVGID_20_"> <use xlink:href="#SVGID_19_" style="overflow:visible;"></use> </clipPath> <radialGradient id="SVGID_21_" cx="-1285.7805" cy="1313.0706" r="2.1152" gradientTransform="matrix(293.5413 0 0 -292.3587 378223.125 384204.9063)" gradientUnits="userSpaceOnUse"> <stop offset="0" style="stop-color:#FCAC8F"></stop> <stop offset="1.130752e-02" style="stop-color:#FCA789"></stop> <stop offset="0.427" style="stop-color:#FF0001"></stop> <stop offset="0.6628" style="stop-color:#FD0001"></stop> <stop offset="0.7574" style="stop-color:#F60001"></stop> <stop offset="0.8268" style="stop-color:#EA0001"></stop> <stop offset="0.8838" style="stop-color:#D80001"></stop> <stop offset="0.9331" style="stop-color:#C20001"></stop> <stop offset="0.9765" style="stop-color:#A60000"></stop> <stop offset="1" style="stop-color:#940001"></stop> </radialGradient> <rect x="760.5" y="570.4" class="st6" width="362.9" height="204.2"></rect> </g> <g> <defs> <path id="SVGID_22_" d="M740.6,737.7L740.6,737.7c0.1,0-1.1,2.5,0.8,4.2c0,0,1.8,1.4,3.6,0.3v0c37.9-18.7,195.4-98.6,260.7-161.9 c0,0,41.3-33.1,43.5-86.1c4.8-73.7-69.7-141.9-69.7-141.9S841.6,518.3,740.6,737.7"></path> </defs> <clipPath id="SVGID_23_"> <use xlink:href="#SVGID_22_" style="overflow:visible;"></use> </clipPath> <radialGradient id="SVGID_24_" cx="-1285.78" cy="1313.0718" r="2.114" gradientTransform="matrix(293.5521 0 0 -292.3694 378237 384219.2188)" gradientUnits="userSpaceOnUse"> <stop offset="0" style="stop-color:#FCAC8F"></stop> <stop offset="1.130752e-02" style="stop-color:#FCA789"></stop> <stop offset="0.427" style="stop-color:#FF0001"></stop> <stop offset="0.6628" style="stop-color:#FD0001"></stop> <stop offset="0.7574" style="stop-color:#F60001"></stop> <stop offset="0.8268" style="stop-color:#EA0001"></stop> <stop offset="0.8838" style="stop-color:#D80001"></stop> <stop offset="0.9331" style="stop-color:#C20001"></stop> <stop offset="0.9765" style="stop-color:#A60000"></stop> <stop offset="1" style="stop-color:#940001"></stop> </radialGradient> <rect x="739.5" y="352.2" class="st7" width="314.4" height="391"></rect> </g> </g> </svg> 